# Blender 4.2.3 LTS
# www.blender.org
mtllib computer.mtl
o Cube.001
v -0.295470 0.605634 1.423761
v -0.969597 2.086551 1.423761
v -0.295470 0.605634 -1.423761
v -0.969597 2.086551 -1.423761
v 0.555481 0.858785 1.637526
v -0.219859 2.562048 1.637526
v 0.555481 0.858785 -1.637526
v -0.219859 2.562048 -1.637526
v -0.272313 0.554765 -1.521574
v -0.272313 0.554765 1.521574
v -0.992753 2.137421 1.521574
v -0.992753 2.137421 -1.521574
v -0.246493 2.620555 -1.750024
v 0.582114 0.800278 -1.750024
v 0.582114 0.800278 1.750024
v -0.246493 2.620555 1.750024
vn -0.2288 -0.1042 -0.9679
vn -0.2288 -0.1042 0.9679
vn 0.2762 -0.9611 -0.0000
vn -0.5435 0.8394 -0.0000
vn -0.9101 -0.4143 -0.0000
vn 0.9101 0.4143 -0.0000
vn -0.2851 0.9585 -0.0000
vn 0.2150 0.0979 0.9717
vn 0.5356 -0.8445 -0.0000
vn 0.2150 0.0979 -0.9717
vt 0.375000 0.250000
vt 0.625000 0.250000
vt 0.625000 0.500000
vt 0.375000 0.500000
vt 0.375000 0.750000
vt 0.625000 0.750000
vt 0.625000 1.000000
vt 0.375000 1.000000
vt 0.125000 0.500000
vt 0.125000 0.750000
vt 0.875000 0.500000
vt 0.875000 0.750000
vt 0.383035 0.008035
vt 0.383035 0.241964
vt 0.375000 0.000000
vt 0.616964 0.008035
vt 0.625000 0.000000
vt 0.616964 0.241965
vt 0.616964 0.508035
vt 0.383035 0.508035
vt 0.383035 0.741964
vt 0.616964 0.741965
s 1
usemtl Material
f 9/1/1 12/2/1 13/3/1 14/4/1
f 15/5/2 16/6/2 11/7/2 10/8/2
f 9/9/3 14/4/3 15/5/3 10/10/3
f 13/3/4 12/11/4 11/12/4 16/6/4
f 1/13/5 3/14/5 9/1/5 10/15/5
f 2/16/5 1/13/5 10/15/5 11/17/5
f 4/18/5 2/16/5 11/17/5 12/2/5
f 3/14/5 4/18/5 12/2/5 9/1/5
f 8/19/6 7/20/6 14/4/6 13/3/6
f 7/20/6 5/21/6 15/5/6 14/4/6
f 6/22/6 8/19/6 13/3/6 16/6/6
f 5/21/6 6/22/6 16/6/6 15/5/6
f 3/14/7 1/13/7 5/21/7 7/20/7
f 3/14/8 7/20/8 8/19/8 4/18/8
f 2/16/9 4/18/9 8/19/9 6/22/9
f 1/13/10 2/16/10 6/22/10 5/21/10
usemtl Material.002
f 5/21/5 6/22/5 8/19/5 7/20/5
