# Blender 4.2.3 LTS
# www.blender.org
mtllib computerdesk.mtl
o Cube
v 1.294683 0.144871 -1.896621
v 1.453916 -0.144871 -2.129887
v 1.294683 0.144871 1.896621
v 1.453916 -0.144871 2.129887
v -1.294683 0.144871 -1.896621
v -1.453916 -0.144871 -2.129887
v -1.294683 0.144871 1.896621
v -1.453916 -0.144871 2.129887
vn -0.0000 1.0000 -0.0000
vn -0.0000 0.6271 0.7789
vn -0.8764 0.4816 -0.0000
vn -0.0000 -1.0000 -0.0000
vn 0.8764 0.4816 -0.0000
vn -0.0000 0.6271 -0.7789
vt 0.625000 0.500000
vt 0.875000 0.500000
vt 0.875000 0.750000
vt 0.625000 0.750000
vt 0.375000 0.750000
vt 0.625000 1.000000
vt 0.375000 1.000000
vt 0.375000 0.000000
vt 0.625000 0.000000
vt 0.625000 0.250000
vt 0.375000 0.250000
vt 0.125000 0.500000
vt 0.375000 0.500000
vt 0.125000 0.750000
s 1
usemtl Material
f 1/1/1 5/2/1 7/3/1 3/4/1
f 4/5/2 3/4/2 7/6/2 8/7/2
f 8/8/3 7/9/3 5/10/3 6/11/3
f 6/12/4 2/13/4 4/5/4 8/14/4
f 2/13/5 1/1/5 3/4/5 4/5/5
f 6/11/6 5/10/6 1/1/6 2/13/6
o Cube.002
v 0.726172 0.135730 1.502212
v 0.726172 0.219318 1.502212
v 0.726172 0.135730 1.661600
v 0.726172 0.219318 1.661600
v 1.093915 0.135730 1.507471
v 1.093915 0.210240 1.507471
v 1.093915 0.135730 1.656340
v 1.093915 0.210240 1.656340
v 0.910043 0.135730 1.690970
v 0.910043 0.225736 1.690970
v 0.910043 0.135730 1.472842
v 0.910043 0.225736 1.472842
v 0.726172 0.199605 1.502212
v 0.726172 0.199605 1.661600
v 1.093915 0.199605 1.656340
v 1.093915 0.199605 1.507471
v 0.910043 0.199605 1.472842
v 0.910043 0.199605 1.690970
v 0.726172 0.194537 1.661600
v 1.093915 0.194537 1.656340
v 1.093915 0.194537 1.507471
v 0.910043 0.194537 1.472842
v 0.910043 0.194537 1.690970
v 0.726172 0.194537 1.502212
v 0.733994 0.194537 1.505602
v 0.733994 0.199605 1.505602
v 0.733994 0.199605 1.658210
v 0.910043 0.199605 1.684408
v 0.910043 0.199605 1.479403
v 0.733994 0.194537 1.658210
v 0.910043 0.194537 1.479403
v 0.910043 0.194537 1.684408
v 0.726172 0.151884 1.595675
v 0.726172 0.151884 1.568137
v 0.726172 0.219318 1.545551
v 0.726172 0.219318 1.618261
v 1.093915 0.135730 1.545551
v 1.093915 0.135730 1.618261
v 1.093915 0.210240 1.618261
v 1.093915 0.210240 1.545551
v 0.914637 0.199605 1.690970
v 0.914637 0.199605 1.472842
v 0.910043 0.135730 1.618261
v 0.910043 0.135730 1.545551
v 1.093915 0.199605 1.618261
v 1.093915 0.199605 1.545551
v 0.914637 0.225736 1.472842
v 0.914637 0.135730 1.690970
v 0.726172 0.178382 1.568137
v 0.726172 0.178382 1.595675
v 1.093915 0.194537 1.618261
v 1.093915 0.194537 1.545551
v 0.733994 0.199605 1.547098
v 0.733994 0.199605 1.616714
v 0.733994 0.194537 1.547098
v 0.733994 0.194537 1.616714
v 0.914637 0.135730 1.472842
v 0.914637 0.225736 1.690970
v 0.910043 0.225736 1.618261
v 0.910043 0.225736 1.545551
v 0.726172 0.199605 1.545551
v 0.726172 0.199605 1.618261
v 0.914637 0.194537 1.690970
v 0.914637 0.194537 1.472842
v 0.914637 0.135730 1.618261
v 0.914637 0.135730 1.545551
v 0.914637 0.225736 1.618261
v 0.914637 0.225736 1.545551
v 0.914637 0.222517 1.480645
v 0.910043 0.222517 1.480645
v 0.914637 0.222517 1.683166
v 0.914637 0.199605 1.679934
v 0.910043 0.199605 1.483878
v 0.910043 0.222517 1.683166
v 0.910043 0.199605 1.679934
v 0.914637 0.199605 1.483878
v 0.914637 0.221183 1.545551
v 0.914637 0.221183 1.618261
v 0.910043 0.221183 1.545551
v 0.910043 0.221183 1.618261
v 0.818108 0.135730 1.690970
v 0.864583 0.231938 1.472842
v 0.864583 0.231938 1.690970
v 0.818108 0.135730 1.472842
v 0.818108 0.199605 1.690970
v 0.818108 0.199605 1.472842
v 0.818108 0.194537 1.472842
v 0.818108 0.194537 1.690970
v 0.822019 0.199605 1.685369
v 0.822019 0.199605 1.478443
v 0.822019 0.194537 1.478443
v 0.822019 0.194537 1.685369
v 0.818108 0.135730 1.618261
v 0.818108 0.135730 1.545551
v 0.864583 0.231938 1.618261
v 0.864583 0.231938 1.545551
v 0.726172 0.146396 1.581906
v 0.726172 0.183870 1.581906
v 0.726172 0.165133 1.562433
v 0.726172 0.165133 1.601378
v 0.726172 0.135730 1.581906
v 0.726172 0.135730 1.545551
v 0.726172 0.194537 1.581906
v 0.726172 0.194537 1.618261
v 0.726172 0.165133 1.545551
v 0.726172 0.165133 1.618261
v 0.726172 0.135730 1.618261
v 0.726172 0.194537 1.545551
v 0.713742 0.165133 1.593544
v 0.713742 0.165133 1.562433
v 0.713742 0.146396 1.581906
v 0.713742 0.179445 1.581906
v 0.713742 0.153456 1.575294
v 0.713742 0.176810 1.588518
v 0.713742 0.153456 1.588518
v 0.713742 0.176810 1.575294
v 0.713742 0.150821 1.581906
v 0.713742 0.151884 1.568137
v 0.713742 0.183870 1.581906
v 0.713742 0.178382 1.595675
v 0.713742 0.165133 1.570267
v 0.713742 0.165133 1.601378
v 0.713742 0.151884 1.595675
v 0.713742 0.178382 1.568137
v -1.731719 0.165133 1.581906
v -1.731719 0.165133 1.593544
v -1.731719 0.165133 1.570267
v -1.731719 0.150821 1.581906
v -1.731719 0.179445 1.581906
v -1.731719 0.153456 1.575294
v -1.731719 0.176810 1.588518
v -1.731719 0.153456 1.588518
v -1.731719 0.176810 1.575294
vn -1.0000 -0.0000 -0.0000
vn 0.1256 -0.0000 0.9921
vn 0.1897 -0.0000 0.9819
vn 1.0000 -0.0000 -0.0000
vn -0.1520 0.1357 -0.9790
vn -0.0991 0.0885 -0.9911
vn -0.2523 0.2253 -0.9410
vn -0.0000 -1.0000 -0.0000
vn -0.0908 0.9959 -0.0000
vn -0.0000 1.0000 -0.0000
vn -0.1520 0.1357 0.9790
vn -0.0991 0.0885 0.9911
vn -0.0000 -0.0000 1.0000
vn 0.0937 -0.0000 -0.9956
vn 0.1256 -0.0000 -0.9921
vn -0.0000 -0.0000 -1.0000
vn 0.0937 -0.0000 0.9956
vn -0.1479 -0.0000 -0.9890
vn -0.3043 -0.0000 -0.9526
vn -0.1479 -0.0000 0.9890
vn -0.1379 -0.0000 0.9904
vn 0.0109 -0.0000 0.9999
vn -0.1379 -0.0000 -0.9904
vn -0.2948 -0.0000 -0.9556
vn -0.0000 0.9289 0.3702
vn 0.0861 0.9963 -0.0000
vn 0.1897 -0.0000 -0.9819
vn -0.0000 0.9999 0.0103
vn -0.0000 0.9998 0.0205
vn -0.0000 -0.1397 -0.9902
vn -0.0000 0.9998 -0.0205
vn -0.0000 0.9999 -0.0103
vn -0.0000 -0.1397 0.9902
vn 0.1352 0.9908 -0.0000
vn 0.0109 -0.0000 -0.9999
vn -0.2948 -0.0000 0.9556
vn -0.3043 -0.0000 0.9526
vn -0.2523 0.2253 0.9410
vn -0.0000 -0.3954 0.9185
vn -0.0000 0.9289 -0.3702
vn -0.0000 0.3954 0.9185
vn -0.0000 -0.9289 -0.3702
vn -0.0000 -0.3954 -0.9185
vn -0.0000 0.3954 -0.9185
vn -0.0000 -0.9289 0.3702
vt 0.552419 0.166667
vt 0.625000 0.166667
vt 0.625000 0.250000
vt 0.552419 0.250000
vt 0.552419 0.378123
vt 0.625000 0.378123
vt 0.625000 0.500000
vt 0.552419 0.500000
vt 0.552419 0.666667
vt 0.625000 0.666667
vt 0.625000 0.750000
vt 0.552419 0.750000
vt 0.552419 0.937500
vt 0.625000 0.905905
vt 0.625000 1.000000
vt 0.552419 1.000000
vt 0.253123 0.666667
vt 0.375000 0.666667
vt 0.375000 0.750000
vt 0.253123 0.750000
vt 0.780905 0.666667
vt 0.875000 0.666667
vt 0.875000 0.750000
vt 0.780905 0.750000
vt 0.552419 0.875000
vt 0.552419 0.871877
vt 0.187500 0.666667
vt 0.250000 0.666667
vt 0.250000 0.750000
vt 0.187500 0.750000
vt 0.746877 0.583333
vt 0.746877 0.500000
vt 0.552419 0.312500
vt 0.625000 0.344095
vt 0.625000 0.375000
vt 0.552419 0.375000
vt 0.552419 0.166667
vt 0.538340 0.871877
vt 0.538340 0.875000
vt 0.538340 0.666667
vt 0.538340 0.750000
vt 0.538340 0.378123
vt 0.538340 0.500000
vt 0.552419 0.312500
vt 0.375000 0.166667
vt 0.456670 0.166667
vt 0.538340 0.166667
vt 0.538340 0.250000
vt 0.375000 0.250000
vt 0.375000 0.378123
vt 0.375000 0.500000
vt 0.375000 0.937500
vt 0.538340 0.937500
vt 0.538340 1.000000
vt 0.375000 1.000000
vt 0.375000 0.871877
vt 0.375000 0.875000
vt 0.375000 0.312500
vt 0.538340 0.312500
vt 0.538340 0.375000
vt 0.375000 0.375000
vt 0.552419 0.937500
vt 0.538340 0.166667
vt 0.538340 0.083333
vt 0.538340 0.000000
vt 0.538340 0.125000
vt 0.552419 0.000000
vt 0.552419 0.083333
vt 0.538340 0.583333
vt 0.375000 0.583333
vt 0.375000 0.000000
vt 0.456670 0.083333
vt 0.375000 0.083333
vt 0.517043 0.125000
vt 0.517043 0.145369
vt 0.552419 0.583333
vt 0.552419 0.083333
vt 0.187500 0.500000
vt 0.250000 0.500000
vt 0.250000 0.583333
vt 0.187500 0.583333
vt 0.750000 0.666667
vt 0.750000 0.750000
vt 0.780905 0.500000
vt 0.875000 0.500000
vt 0.875000 0.583333
vt 0.780905 0.583333
vt 0.253123 0.500000
vt 0.253123 0.583333
vt 0.625000 0.583333
vt 0.625000 0.000000
vt 0.625000 0.083333
vt 0.746877 0.666667
vt 0.625000 0.871877
vt 0.746877 0.750000
vt 0.750000 0.583333
vt 0.625000 0.875000
vt 0.750000 0.500000
vt 0.125000 0.583333
vt 0.125000 0.666667
vt 0.125000 0.625000
vt 0.125000 0.500000
vt 0.125000 0.750000
vt 0.456670 0.145369
vt 0.396298 0.145369
vt 0.517043 0.104631
vt 0.396298 0.104631
vt 0.396298 0.125000
vt 0.375000 0.125000
vt 0.456670 0.104631
vt 0.501003 0.115820
vt 0.502785 0.125000
vt 0.501003 0.134180
vt 0.456670 0.137174
vt 0.410555 0.125000
vt 0.412338 0.115820
vt 0.456670 0.112826
vt 0.412338 0.134180
vt 0.456670 0.125000
s 1
f 70/15/7 22/18/7 12/17/7 44/16/7
f 49/19/8 23/22/9 16/21/9 66/20/9
f 54/23/10 24/26/10 14/25/10 48/24/10
f 94/27/11 21/30/13 10/29/13 90/28/12
f 74/31/14 65/34/14 13/33/14 45/32/14
f 104/35/15 90/38/15 10/37/15 43/36/15
f 25/39/16 81/39/16 84/40/16 50/40/16
f 102/41/14 92/44/14 19/43/14 52/42/14
f 75/45/7 86/45/7 79/46/7 66/46/7
f 93/47/17 26/50/19 18/49/19 91/48/18
f 70/15/14 62/51/14 35/18/14 22/18/14
f 72/52/20 30/53/22 25/39/22 50/40/21
f 30/53/7 39/53/7 37/39/7 25/39/7
f 60/54/10 29/55/10 24/26/10 54/23/10
f 71/56/23 28/57/9 23/22/9 49/19/8
f 93/47/14 97/58/14 36/50/14 26/50/14
f 115/59/7 11/63/7 27/62/7 112/61/7 114/60/7
f 56/64/23 15/65/9 28/57/9 71/56/23
f 45/32/10 13/33/10 29/55/10 60/54/10
f 92/66/24 9/69/25 32/68/25 95/67/24
f 65/70/20 19/71/22 30/53/22 72/52/20
f 89/72/26 17/75/19 31/74/19 96/73/26
f 100/73/27 40/74/28 36/50/28 97/58/27
f 99/67/29 33/68/30 34/30/30 98/76/29
f 64/77/7 38/62/7 35/18/7 62/51/7
f 116/78/16 63/78/16 33/79/16 32/79/16
f 26/50/7 36/50/7 40/74/7 31/74/7
f 96/73/16 100/73/16 38/62/16 27/62/16
f 95/67/16 99/67/16 39/53/16 30/53/16
f 94/27/14 98/76/14 34/30/14 21/30/14
f 27/62/16 38/62/16 64/77/16 112/61/16
f 112/61/16 64/77/16 63/78/16 116/78/16 111/80/16
f 33/79/7 63/78/7 61/82/7 34/81/7
f 63/78/7 64/77/7 62/51/7 61/82/7
f 15/65/10 46/84/10 59/83/10 28/57/10
f 46/84/10 45/32/10 60/54/10 59/83/10
f 9/85/7 110/87/7 113/86/7 116/78/7 32/79/7
f 106/88/31 127/88/31 128/89/31 58/89/31
f 28/57/10 59/83/10 53/90/10 23/22/10
f 59/83/10 60/54/10 54/23/10 53/90/10
f 21/81/14 34/81/14 61/82/14 69/91/14
f 69/91/14 61/82/14 62/51/14 70/15/14
f 89/92/14 101/95/14 51/94/14 17/93/14
f 101/95/14 102/41/14 52/42/14 51/94/14
f 66/20/7 79/20/7 80/19/7 49/19/7
f 68/96/10 87/96/10 78/97/10 20/97/10
f 91/98/15 103/101/15 44/100/15 12/99/15
f 103/101/15 104/35/15 43/36/15 44/100/15
f 56/102/14 73/103/14 46/84/14 15/65/14
f 73/103/14 74/31/14 45/32/14 46/84/14
f 23/22/10 53/90/10 47/104/10 16/21/10
f 53/90/10 54/23/10 48/24/10 47/104/10
f 21/81/7 69/91/7 43/106/7 10/105/7
f 69/91/7 70/15/7 44/16/7 43/106/7
f 16/21/32 47/104/32 75/45/32 66/46/32
f 47/104/32 48/24/32 76/107/32 75/45/32
f 17/93/14 51/94/14 73/103/14 56/102/14
f 51/94/14 52/42/14 74/31/14 73/103/14
f 13/33/33 65/70/20 72/52/20 29/55/33
f 17/75/19 56/64/23 71/56/23 31/74/19
f 31/74/19 71/56/23 49/19/8 26/50/19
f 29/55/33 72/52/20 50/40/21 24/26/33
f 24/26/33 50/40/21 55/108/33 14/25/33
f 48/24/32 14/25/32 55/109/32 76/107/32
f 52/42/14 19/43/14 65/34/14 74/31/14
f 67/110/10 88/110/10 87/96/10 68/96/10
f 85/107/34 77/109/35 78/97/35 87/96/34
f 84/40/36 81/39/36 78/111/36 77/108/36
f 79/46/37 86/45/38 88/110/38 82/112/37
f 86/45/38 85/107/34 87/96/34 88/110/38
f 83/50/39 80/19/39 79/20/39 82/49/39
f 49/19/16 80/19/16 83/50/16 26/50/16
f 55/109/7 77/109/7 85/107/7 76/107/7
f 20/111/10 78/111/10 81/39/10 25/39/10
f 76/107/7 85/107/7 86/45/7 75/45/7
f 18/112/10 82/112/10 88/110/10 67/110/10
f 50/40/7 84/40/7 77/108/7 55/108/7
f 26/50/10 83/50/10 82/49/10 18/49/10
f 67/110/40 68/96/40 104/35/40 103/101/40
f 18/112/40 67/110/40 103/101/40 91/98/40
f 115/113/14 109/115/14 110/114/14 102/41/14 101/95/14
f 11/116/14 115/113/14 101/95/14 89/92/14
f 25/39/14 37/39/14 98/76/14 94/27/14
f 32/68/16 33/68/16 99/67/16 95/67/16
f 31/74/16 40/74/16 100/73/16 96/73/16
f 39/53/41 99/67/29 98/76/29 37/39/41
f 38/62/42 100/73/27 97/58/27 35/18/42
f 11/63/43 89/72/26 96/73/26 27/62/43
f 19/71/22 92/66/24 95/67/24 30/53/22
f 22/18/14 35/18/14 97/58/14 93/47/14
f 22/18/44 93/47/17 91/48/18 12/17/44
f 110/114/14 9/117/14 92/44/14 102/41/14
f 68/96/40 20/97/40 90/38/40 104/35/40
f 25/39/22 94/27/11 90/28/12 20/111/22
f 108/118/19 130/118/19 131/119/45 41/119/45
f 57/120/46 132/120/46 127/88/46 106/88/46
f 58/89/47 128/89/47 130/118/19 108/118/19
f 42/121/7 110/87/7 109/123/7 105/122/7
f 58/89/7 112/61/7 111/80/7 106/88/7
f 107/124/7 113/86/7 110/87/7 42/121/7
f 41/119/7 115/59/7 114/60/7 108/118/7
f 105/122/7 109/123/7 115/59/7 41/119/7
f 106/88/7 111/80/7 116/78/7 57/120/7
f 57/120/7 116/78/7 113/86/7 107/124/7
f 108/118/7 114/60/7 112/61/7 58/89/7
f 124/125/46 141/125/46 137/126/46 120/126/46
f 122/127/47 139/127/47 134/128/19 117/128/19
f 125/129/48 136/129/48 138/130/48 121/130/48
f 121/130/49 138/130/49 135/131/22 129/131/22
f 107/124/22 118/124/22 132/120/50 57/120/50
f 41/119/51 131/119/51 119/122/51 105/122/51
f 42/121/49 126/121/49 118/124/22 107/124/22
f 105/122/48 119/122/48 126/121/48 42/121/48
f 121/130/7 126/121/7 119/122/7 125/129/7
f 122/127/7 128/89/7 127/88/7 120/126/7
f 129/131/7 118/124/7 126/121/7 121/130/7
f 123/132/7 131/119/7 130/118/7 117/128/7
f 125/129/7 119/122/7 131/119/7 123/132/7
f 120/126/7 127/88/7 132/120/7 124/125/7
f 124/125/7 132/120/7 118/124/7 129/131/7
f 117/128/7 130/118/7 128/89/7 122/127/7
f 133/133/7 134/128/7 139/127/7 137/126/7
f 136/129/7 140/132/7 134/128/7 133/133/7
f 138/130/7 136/129/7 133/133/7 135/131/7
f 135/131/7 133/133/7 137/126/7 141/125/7
f 117/128/19 134/128/19 140/132/45 123/132/45
f 120/126/31 137/126/31 139/127/31 122/127/31
f 129/131/22 135/131/22 141/125/50 124/125/50
f 123/132/51 140/132/51 136/129/51 125/129/51
o Cube.003
v 0.245717 0.252538 -0.292075
v 0.245717 0.201846 -0.292075
v 0.245717 0.252538 -0.367608
v 0.245717 0.201846 -0.367608
v 1.007579 0.243098 0.606587
v 1.027909 0.145694 0.670159
v 1.007579 0.243098 -1.266269
v 1.027909 0.145694 -1.329841
v 0.245717 0.263036 -0.329842
v 0.245717 0.191347 -0.329842
v 1.007579 0.243098 -0.329841
v 1.027909 0.145694 -0.329841
v 0.245717 0.227192 -0.276432
v 0.245717 0.227192 -0.383251
v 1.027909 0.193521 -1.329841
v 1.027909 0.193521 0.670159
v 1.027909 0.193521 -0.329841
v 0.266047 0.306939 -0.329841
v 0.266047 0.306939 0.606587
v 0.245717 0.227192 0.670159
v 0.245717 0.145694 0.670159
v 0.245717 0.145694 -0.329841
v 0.245717 0.145694 -1.329841
v 0.245717 0.227192 -1.329841
v 0.266047 0.306939 -1.266269
v 0.206575 0.263036 -0.329842
v 0.206575 0.191347 -0.329842
v 0.206575 0.227192 -0.292717
v 0.206575 0.227192 -0.366966
v 0.206575 0.252460 -0.308312
v 0.206575 0.201923 -0.308312
v 0.206575 0.201923 -0.351371
v 0.206575 0.252460 -0.351371
v 0.206575 0.258445 -0.329842
v 0.206575 0.252538 -0.292075
v 0.206575 0.227192 -0.276432
v 0.206575 0.201846 -0.292075
v 0.206575 0.195938 -0.329842
v 0.206575 0.201846 -0.367608
v 0.206575 0.227192 -0.383251
v 0.206575 0.252538 -0.367608
v -2.117094 0.227192 -0.329842
v -2.117094 0.258445 -0.329842
v -2.117094 0.195938 -0.329842
v -2.117094 0.227192 -0.292717
v -2.117094 0.227192 -0.366966
v -2.117094 0.252460 -0.308312
v -2.117094 0.201923 -0.308312
v -2.117094 0.201923 -0.351371
v -2.117094 0.252460 -0.351371
v 0.245717 0.308689 -0.329841
v 0.245717 0.308689 0.670159
v 1.027909 0.241348 -1.329841
v 0.245717 0.308689 -1.329841
v 1.027909 0.241348 -0.329841
v 1.027909 0.241348 0.670159
v 1.010078 0.272127 -0.329841
v 0.268546 0.335968 -0.329841
v 0.268546 0.335968 0.606587
v 1.010078 0.272127 -1.266269
v 0.268546 0.335968 -1.266269
v 1.010078 0.272127 0.606587
vn -0.0000 0.9026 -0.4305
vn -0.0000 0.9635 -0.2678
vn -0.0000 -0.0000 -1.0000
vn 1.0000 -0.0000 -0.0000
vn -0.0000 -0.0000 1.0000
vn 0.9963 -0.0858 -0.0000
vn -0.0000 -1.0000 -0.0000
vn -0.9963 0.0858 -0.0000
vn -0.0000 0.9026 0.4305
vn -0.0000 -0.9026 0.4305
vn -1.0000 -0.0000 -0.0000
vn -0.0000 -0.9635 -0.2678
vn -0.0000 -0.9026 -0.4305
vn -0.0000 0.9635 0.2678
vn -0.0000 -0.9635 0.2678
vn 0.0858 0.9963 -0.0000
vt 0.432982 0.151199
vt 0.432982 0.125000
vt 0.500000 0.250000
vt 0.625000 0.250000
vt 0.625000 0.500000
vt 0.500000 0.500000
vt 0.500000 0.625000
vt 0.625000 0.625000
vt 0.625000 0.750000
vt 0.500000 0.750000
vt 0.625000 1.000000
vt 0.500000 1.000000
vt 0.368502 0.507946
vt 0.368502 0.625000
vt 0.875000 0.625000
vt 0.875000 0.750000
vt 0.875000 0.500000
vt 0.131498 0.625000
vt 0.131498 0.507946
vt 0.432982 0.098801
vt 0.500000 0.098801
vt 0.567018 0.098801
vt 0.375000 0.500000
vt 0.375000 0.625000
vt 0.375000 0.750000
vt 0.375000 1.000000
vt 0.375000 0.250000
vt 0.500000 0.151199
vt 0.375000 0.125000
vt 0.375000 0.000000
vt 0.500000 0.000000
vt 0.625000 0.000000
vt 0.567018 0.151199
vt 0.567018 0.125000
vt 0.625000 0.125000
vt 0.441822 0.139836
vt 0.441566 0.125000
vt 0.441822 0.110164
vt 0.500000 0.106789
vt 0.558178 0.110164
vt 0.500000 0.143211
vt 0.558178 0.139836
vt 0.558434 0.125000
vt 0.500000 0.125000
vt 0.131498 0.742054
vt 0.125000 0.750000
vt 0.125000 0.625000
vt 0.125000 0.500000
vt 0.368502 0.742054
s 1
f 144/134/52 182/134/52 167/135/53 150/135/53
f 165/136/54 156/139/54 149/138/54 164/137/54
f 158/140/55 157/143/55 147/142/55 153/141/55
f 157/143/56 161/145/56 162/144/56 147/142/56
f 148/146/57 201/146/57 198/147/57 152/147/57
f 153/141/58 147/142/58 162/149/58 163/148/58
f 149/138/58 153/141/58 163/148/58 164/150/58
f 159/151/59 199/151/59 202/152/59 166/152/59
f 156/139/55 158/140/55 153/141/55 149/138/55
f 142/153/60 176/153/60 177/154/56 154/154/56
f 154/154/56 177/154/56 178/155/61 143/155/61
f 194/156/55 196/157/55 158/140/55 156/139/55
f 197/158/56 193/159/56 161/145/56 157/143/56
f 196/157/55 197/158/55 157/143/55 158/140/55
f 195/160/54 194/156/54 156/139/54 165/136/54
f 155/161/54 181/161/54 182/134/52 144/134/52
f 142/153/62 193/163/62 192/162/62 150/135/62
f 143/155/62 162/165/62 161/164/62 154/154/62
f 145/166/62 164/137/62 163/168/62 151/167/62
f 144/134/62 195/160/62 165/136/62 155/161/62
f 150/135/62 192/162/62 195/160/62 144/134/62
f 151/167/62 163/168/62 162/165/62 143/155/62
f 154/154/62 161/164/62 193/163/62 142/153/62
f 155/161/62 165/136/62 164/137/62 145/166/62
f 174/169/52 191/169/52 184/170/53 175/170/53
f 171/171/60 188/171/60 186/172/56 169/172/56
f 169/172/56 186/172/56 189/173/61 172/173/61
f 170/174/54 187/174/54 191/169/52 174/169/52
f 151/167/63 168/167/63 180/166/64 145/166/64
f 150/135/65 167/135/65 176/153/60 142/153/60
f 145/166/64 180/166/64 181/161/54 155/161/54
f 143/155/61 178/155/61 168/167/66 151/167/66
f 171/171/62 176/153/62 167/135/62 175/170/62
f 172/173/62 178/155/62 177/154/62 169/172/62
f 173/175/62 180/166/62 168/167/62 179/176/62
f 174/169/62 182/134/62 181/161/62 170/174/62
f 175/170/62 167/135/62 182/134/62 174/169/62
f 179/176/62 168/167/62 178/155/62 172/173/62
f 169/172/62 177/154/62 176/153/62 171/171/62
f 170/174/62 181/161/62 180/166/62 173/175/62
f 183/177/62 187/174/62 190/175/62 185/176/62
f 186/172/62 183/177/62 185/176/62 189/173/62
f 188/171/62 184/170/62 183/177/62 186/172/62
f 184/170/62 191/169/62 187/174/62 183/177/62
f 179/176/63 185/176/63 190/175/64 173/175/64
f 175/170/65 184/170/65 188/171/60 171/171/60
f 173/175/64 190/175/64 187/174/54 170/174/54
f 172/173/61 189/173/61 185/176/66 179/176/66
f 159/151/67 192/180/67 193/179/67 160/178/67
f 148/146/67 194/156/67 195/181/67 166/152/67
f 152/147/67 196/157/67 194/156/67 148/146/67
f 160/178/67 193/179/67 197/158/67 146/182/67
f 166/152/67 195/181/67 192/180/67 159/151/67
f 146/182/67 197/158/67 196/157/67 152/147/67
f 199/151/67 200/178/67 203/182/67 198/147/67
f 202/152/67 199/151/67 198/147/67 201/146/67
f 160/178/59 200/178/59 199/151/59 159/151/59
f 152/147/57 198/147/57 203/182/57 146/182/57
f 146/182/56 203/182/56 200/178/56 160/178/56
f 166/152/54 202/152/54 201/146/54 148/146/54
