# Blender 4.0.2
# www.blender.org
mtllib acess indicator.mtl
o Cube
v 0.141903 3.427143 -1.577666
v 1.096991 -3.427143 -1.577666
v 0.141903 3.427143 1.577666
v 1.096991 -3.427143 1.577666
v 1.096991 -2.902412 1.577666
v 1.096991 -2.902412 -1.577666
v 1.096991 -3.140287 1.577666
v 0.141903 3.140287 1.577666
v 0.141903 3.140287 -1.577666
v 1.096991 -3.140287 -1.577666
v 0.186293 -0.116932 1.577666
v 0.186293 0.116932 1.577666
v 0.186293 0.116932 -1.577666
v 0.186293 -0.116932 -1.577666
v 1.096991 0.354807 1.577666
v 1.096991 0.354807 -1.577666
v 1.000000 -3.427143 -1.289174
v 1.000000 -3.427143 1.289174
v 0.044912 3.427143 1.289174
v 0.044912 3.427143 -1.289174
v 1.000000 -3.140287 -1.289174
v 1.000000 -3.140287 1.289174
v 0.089302 0.116932 1.289174
v 0.089302 0.116932 -1.289174
v 1.000000 0.235869 -1.289174
v 1.096991 0.235869 1.577666
v 1.096991 0.235869 -1.577666
v 1.000000 0.235869 1.289174
v 2.532465 3.427143 -1.577666
v 2.532465 -3.427143 -1.577666
v 2.532465 3.427143 1.577666
v 2.532465 -3.427143 1.577666
v 2.532465 -2.902412 1.577666
v 2.532465 -2.902412 -1.577666
v 2.532465 -3.140287 1.577666
v 2.532465 3.140287 1.577666
v 2.532465 3.140287 -1.577666
v 2.532465 -3.140287 -1.577666
v 2.532465 -0.116932 1.577666
v 2.532465 0.116932 1.577666
v 2.532465 0.116932 -1.577666
v 2.532465 -0.116932 -1.577666
v 2.532465 0.354807 1.577666
v 2.532465 0.354807 -1.577666
v 2.532465 -3.427143 -1.289174
v 2.532465 -3.427143 1.289174
v 2.532465 3.427143 1.289174
v 2.532465 3.427143 -1.289174
v 2.532465 0.235869 1.577666
v 2.532465 0.235869 -1.577666
v 1.590011 0.425331 1.223894
v 1.590011 0.425331 -1.223894
v 0.726552 -0.187456 1.223894
v 1.591135 -2.831887 1.223894
v 0.683285 3.069763 1.223894
v 1.591135 -2.831888 -1.223894
v 0.683285 3.069762 -1.223894
v 0.726552 -0.187456 -1.223894
v 1.060068 0.361987 -1.282528
v 1.009400 0.296756 -1.350448
v 1.009400 0.296756 1.350448
v 1.060068 0.361987 1.282528
v 0.035512 3.198338 -1.350448
v 0.109793 3.133119 -1.282539
v 0.035512 3.198338 1.350448
v 0.109793 3.133119 1.282539
v 0.080253 -0.058616 1.350448
v 0.153936 -0.124085 1.282553
v 0.080253 -0.058616 -1.350448
v 0.153936 -0.124085 -1.282553
v 1.060053 -2.895247 1.282542
v 1.009049 -2.960727 1.350448
v 1.060053 -2.895247 -1.282542
v 1.009049 -2.960727 -1.350448
vn -0.9479 -0.0000 -0.3187
vn -0.1185 0.9930 -0.0000
vn -0.9262 0.0611 0.3721
vn -0.9987 0.0515 -0.0000
vn -0.1294 0.9906 -0.0435
vn -0.1056 -0.0345 0.9938
vn -0.1294 0.9906 0.0435
vn -0.1056 -0.0345 -0.9938
vn -0.9248 0.0762 -0.3727
vn -0.1295 0.9916 -0.0000
vn -0.9248 0.0762 0.3727
vn -0.9262 0.0611 -0.3721
vn -1.0000 -0.0000 -0.0000
vn -0.9398 -0.0296 -0.3404
vn -0.9479 -0.0000 0.3187
vn -0.9369 -0.0679 0.3430
vn -0.1056 -0.0362 0.9937
vn -0.8815 -0.2851 -0.3763
vn -0.1100 -0.9939 -0.0000
vn -0.9398 -0.0296 0.3404
vn -0.8780 -0.2978 -0.3748
vn -0.1098 -0.9940 -0.0000
vn -0.9883 0.1526 -0.0000
vn -0.0000 -0.0000 -1.0000
vn -0.0000 -1.0000 -0.0000
vn -0.0000 -0.0000 1.0000
vn -0.0000 1.0000 -0.0000
vn -0.9459 -0.3243 -0.0000
vn -0.9505 -0.3108 -0.0000
vn -0.9992 0.0410 -0.0000
vn -0.9369 -0.0679 -0.3430
vn -0.9987 0.0503 -0.0000
vn -0.1056 -0.0362 -0.9937
vn -0.8815 -0.2851 0.3763
vn -0.8780 -0.2978 0.3748
vn -0.7897 0.6134 -0.0000
vn -0.7165 -0.2318 -0.6579
vn -0.7140 -0.2422 -0.6569
vn -0.7889 0.6145 -0.0000
vn -0.6598 -0.7515 -0.0000
vn -0.7140 -0.2422 0.6569
vn -0.6642 -0.7475 -0.0000
vn -0.7165 -0.2318 0.6579
vn -0.1187 0.9929 -0.0000
vt 0.770611 0.154451
vt 0.768103 0.177264
vt 0.746131 0.176809
vt 0.747407 0.152620
vt 0.907311 0.626265
vt 0.898100 0.427110
vt 0.939837 0.429743
vt 0.948627 0.619791
vt 0.217854 0.389777
vt 0.222283 0.407801
vt 0.199993 0.408798
vt 0.201185 0.385671
vt 0.496298 0.192027
vt 0.496421 0.394727
vt 0.483030 0.391441
vt 0.483030 0.195991
vt 0.789612 0.611717
vt 0.860996 0.611717
vt 0.868471 0.634161
vt 0.797087 0.634161
vt 0.898100 0.852685
vt 0.939844 0.835854
vt 0.797087 0.834560
vt 0.868471 0.834560
vt 0.860996 0.857004
vt 0.789612 0.857004
vt 0.623511 0.588103
vt 0.678589 0.807914
vt 0.634294 0.799927
vt 0.581742 0.590169
vt 0.483976 0.172873
vt 0.501241 0.174223
vt 0.503420 0.411895
vt 0.485943 0.415195
vt 0.217701 0.181829
vt 0.212811 0.199186
vt 0.197071 0.203587
vt 0.195260 0.180301
vt 0.755228 0.372562
vt 0.776752 0.368941
vt 0.728203 0.151496
vt 0.731982 0.171715
vt 0.782203 0.391589
vt 0.759690 0.396231
vt 0.458014 0.408995
vt 0.462435 0.403984
vt 0.464210 0.428102
vt 0.454815 0.429188
vt 0.898100 0.426718
vt 0.908798 0.199275
vt 0.949976 0.192498
vt 0.939775 0.409540
vt 0.623518 0.999527
vt 0.581742 0.982776
vt 0.742099 0.379030
vt 0.740822 0.399990
vt 0.449986 0.177879
vt 0.452976 0.198986
vt 0.581350 0.808644
vt 0.524734 0.999804
vt 0.483030 0.982698
vt 0.537057 0.800280
vt 0.457867 0.204227
vt 0.508657 0.000196
vt 0.525869 0.002656
vt 0.884011 0.162059
vt 0.897709 0.368485
vt 0.473080 0.544990
vt 0.250640 0.589155
vt 0.232546 0.000196
vt 0.254157 0.004670
vt 0.473345 0.061693
vt 0.013425 0.432001
vt 0.010625 0.409486
vt 0.227964 0.592678
vt 0.740447 0.035919
vt 0.758922 0.037814
vt 0.482638 0.543463
vt 0.680178 0.880619
vt 0.678981 0.871453
vt 0.000196 0.192202
vt 0.781793 0.040060
vt 0.678981 0.597269
vt 0.680178 0.588103
vt 0.001580 0.168829
vt 0.810122 0.504449
vt 0.787569 0.510029
vt 0.897687 0.391694
vt 0.768820 0.514686
vt 0.553473 0.582563
vt 0.535809 0.587710
vt 0.459504 0.179128
vt 0.482638 0.063571
vt 0.881078 0.139858
vt 0.948081 0.999906
vt 0.072648 0.999906
vt 0.072648 0.000094
vt 0.948081 0.000094
vt 0.999890 1.003330
vt -0.000122 1.003330
vt -0.000122 -0.003330
vt 0.999890 -0.003330
vt 0.524726 0.588103
vt 0.483030 0.589822
vt 0.449421 0.397956
vt 0.447050 0.209545
vt 0.504345 0.388393
vt 0.733061 0.367966
vt 0.224853 0.384210
vt 0.449407 0.397960
vt 0.733075 0.367961
vt 0.726564 0.181536
vt 0.221681 0.205152
vt 0.224847 0.384203
vt 0.447038 0.209543
vt 0.221684 0.205141
vt 0.504104 0.197767
vt 0.504341 0.388382
vt 0.726553 0.181534
vt 0.504110 0.197759
vt 0.898100 0.000196
vt 0.939768 0.002521
s 0
usemtl Material
f 2/1/1 17/2/1 21/3/1 10/4/1
f 73/5/2 71/6/2 54/7/2 56/8/2
f 65/9/3 8/10/3 3/11/3 19/12/3
f 69/13/4 67/14/4 23/15/4 24/16/4
f 27/17/5 13/18/5 24/19/5 25/20/5
f 70/21/6 73/5/6 56/8/6 58/22/6
f 28/23/7 23/24/7 12/25/7 26/26/7
f 71/27/8 68/28/8 53/29/8 54/30/8
f 69/13/9 24/16/9 13/31/9 14/32/9
f 28/23/10 25/20/10 24/19/10 23/24/10
f 11/33/11 12/34/11 23/15/11 67/14/11
f 9/35/12 63/36/12 20/37/12 1/38/12
f 22/39/13 21/3/13 17/2/13 18/40/13
f 6/41/14 10/4/14 21/3/14 74/42/14
f 18/40/15 4/43/15 7/44/15 22/39/15
f 61/45/16 28/46/16 26/47/16 15/48/16
f 64/49/17 59/50/17 52/51/17 57/52/17
f 14/32/18 6/41/18 74/42/18 69/13/18
f 68/28/19 70/53/19 58/54/19 53/29/19
f 72/55/20 22/39/20 7/44/20 5/56/20
f 9/35/21 16/57/21 60/58/21 63/36/21
f 66/59/22 64/60/22 57/61/22 55/62/22
f 61/45/23 60/58/23 25/63/23 28/46/23
f 14/32/24 13/31/24 41/64/24 42/65/24
f 18/40/25 17/2/25 45/66/25 46/67/25
f 8/10/26 15/48/26 43/68/26 36/69/26
f 9/35/24 1/38/24 29/70/24 37/71/24
f 16/57/24 9/35/24 37/71/24 44/72/24
f 19/12/27 3/11/27 31/73/27 47/74/27
f 3/11/26 8/10/26 36/69/26 31/75/26
f 10/4/24 6/41/24 34/76/24 38/77/24
f 15/48/26 26/47/26 49/78/26 43/68/26
f 26/26/26 12/25/26 40/79/26 49/80/26
f 20/37/27 19/12/27 47/74/27 48/81/27
f 2/1/24 10/4/24 38/77/24 30/82/24
f 13/18/24 27/17/24 50/83/24 41/84/24
f 6/41/24 14/32/24 42/65/24 34/76/24
f 1/38/27 20/37/27 48/81/27 29/85/27
f 7/44/26 4/43/26 32/86/26 35/87/26
f 4/43/25 18/40/25 46/67/25 32/88/25
f 5/56/26 7/44/26 35/87/26 33/89/26
f 12/34/26 11/33/26 39/90/26 40/91/26
f 27/92/24 16/57/24 44/72/24 50/93/24
f 17/2/25 2/1/25 30/94/25 45/66/25
f 11/33/26 5/56/26 33/89/26 39/90/26
f 19/12/30 20/37/30 63/36/30 65/9/30
f 16/57/31 27/92/31 25/63/31 60/58/31
f 72/55/32 74/42/32 21/3/32 22/39/32
f 62/103/33 66/59/33 55/62/33 51/104/33
f 67/14/34 72/55/34 5/56/34 11/33/34
f 65/9/35 61/45/35 15/48/35 8/10/35
f 62/105/36 59/106/36 60/58/36 61/45/36
f 68/107/37 71/108/37 72/55/37 67/14/37
f 66/109/38 62/110/38 61/45/38 65/9/38
f 71/111/39 73/112/39 74/42/39 72/55/39
f 64/113/40 66/114/40 65/9/40 63/36/40
f 59/115/41 64/116/41 63/36/41 60/58/41
f 67/14/42 69/13/42 70/117/42 68/118/42
f 73/119/43 70/120/43 69/13/43 74/42/43
f 59/50/44 62/121/44 51/122/44 52/51/44
usemtl entry_denied
f 55/95/28 57/96/28 52/97/28 51/98/28
usemtl entry_allowed
f 53/99/29 58/100/29 56/101/29 54/102/29
